<svg width="756" height="756" xmlns="http://www.w3.org/2000/svg" xmlns:xlink="http://www.w3.org/1999/xlink"
    overflow="hidden">
    <defs>
        <clipPath id="clip0">
            <rect x="0" y="0" width="756" height="756" />
        </clipPath>
    </defs>
    <g clip-path="url(#clip0)">
        <rect x="0" y="0" width="756" height="756" fill="#FFFFFF" fill-opacity="0" />
        <path
            d="M71 123.5C71 109.969 82.1929 99 96 99 109.807 99 121 109.969 121 123.5 121 137.031 109.807 148 96 148 82.1929 148 71 137.031 71 123.5Z"
            fill="#535353" fill-rule="evenodd" />
        <path
            d="M182 123.5C182 109.969 192.969 99 206.5 99L660.5 99C674.031 99 685 109.969 685 123.5L685 123.5C685 137.031 674.031 148 660.5 148L206.5 148C192.969 148 182 137.031 182 123.5Z"
            fill="#535353" fill-rule="evenodd" />
        <path
            d="M182 293.5C182 279.969 193.193 269 207 269 220.807 269 232 279.969 232 293.5 232 307.031 220.807 318 207 318 193.193 318 182 307.031 182 293.5Z"
            fill="#535353" fill-rule="evenodd" />
        <path
            d="M294 293.5C294 279.969 304.969 269 318.5 269L660.5 269C674.031 269 685 279.969 685 293.5L685 293.5C685 307.031 674.031 318 660.5 318L318.5 318C304.969 318 294 307.031 294 293.5Z"
            fill="#535353" fill-rule="evenodd" />
        <path
            d="M182 462.5C182 448.969 193.193 438 207 438 220.807 438 232 448.969 232 462.5 232 476.031 220.807 487 207 487 193.193 487 182 476.031 182 462.5Z"
            fill="#535353" fill-rule="evenodd" />
        <path
            d="M294 462.5C294 448.969 304.969 438 318.5 438L660.5 438C674.031 438 685 448.969 685 462.5L685 462.5C685 476.031 674.031 487 660.5 487L318.5 487C304.969 487 294 476.031 294 462.5Z"
            fill="#535353" fill-rule="evenodd" />
        <path
            d="M182 632.5C182 618.969 193.193 608 207 608 220.807 608 232 618.969 232 632.5 232 646.031 220.807 657 207 657 193.193 657 182 646.031 182 632.5Z"
            fill="#535353" fill-rule="evenodd" />
        <path
            d="M294 632.5C294 618.969 304.969 608 318.5 608L660.5 608C674.031 608 685 618.969 685 632.5L685 632.5C685 646.031 674.031 657 660.5 657L318.5 657C304.969 657 294 646.031 294 632.5Z"
            fill="#535353" fill-rule="evenodd" />
    </g>
</svg>